{
  "accessors": [
    {
      "bufferView": 3,
      "componentType": 5126,
      "count": 3389,
      "max": [
        12.974211692810059,
        5.787087917327881,
        12.915267944335938
      ],
      "min": [
        -12.974211692810059,
        -1.0605428218841553,
        -7.926925182342529
      ],
      "type": "VEC3"
    },
    {
      "bufferView": 3,
      "byteOffset": 40668,
      "componentType": 5126,
      "count": 3389,
      "max": [
        1.0,
        0.9999613165855408,
        0.9999980330467224
      ],
      "min": [
        -1.0,
        -0.9999995231628418,
        -1.0
      ],
      "type": "VEC3"
    },
    {
      "bufferView": 4,
      "componentType": 5126,
      "count": 3389,
      "max": [
        1.0,
        1.0,
        0.999997615814209,
        1.0
      ],
      "min": [
        -1.0,
        -1.0,
        -1.0,
        -1.0
      ],
      "type": "VEC4"
    },
    {
      "bufferView": 2,
      "componentType": 5126,
      "count": 3389,
      "max": [
        0.9599725008010864,
        1.0
      ],
      "min": [
        0.0,
        0.011809110641479492
      ],
      "type": "VEC2"
    },
    {
      "bufferView": 2,
      "byteOffset": 27112,
      "componentType": 5126,
      "count": 3389,
      "max": [
        1.0,
        1.0
      ],
      "min": [
        -1.168419361114502,
        0.08060246706008911
      ],
      "type": "VEC2"
    },
    {
      "bufferView": 1,
      "componentType": 5125,
      "count": 15375,
      "type": "SCALAR"
    },
    {
      "bufferView": 3,
      "byteOffset": 81336,
      "componentType": 5126,
      "count": 828,
      "max": [
        0.5578357577323914,
        2.6833555698394775,
        11.737909317016602
      ],
      "min": [
        0.15633848309516907,
        2.2520487308502197,
        4.526278972625732
      ],
      "type": "VEC3"
    },
    {
      "bufferView": 3,
      "byteOffset": 91272,
      "componentType": 5126,
      "count": 828,
      "max": [
        0.9992701411247253,
        0.9796643257141113,
        1.0
      ],
      "min": [
        -0.9992701411247253,
        -0.9819367527961731,
        -1.0
      ],
      "type": "VEC3"
    },
    {
      "bufferView": 2,
      "byteOffset": 54224,
      "componentType": 5126,
      "count": 828,
      "max": [
        0.5675352811813354,
        1.0
      ],
      "min": [
        0.43246471881866455,
        0.0
      ],
      "type": "VEC2"
    },
    {
      "bufferView": 2,
      "byteOffset": 60848,
      "componentType": 5126,
      "count": 828,
      "max": [
        0.5422905683517456,
        0.8121569752693176
      ],
      "min": [
        0.50139319896698,
        0.771259605884552
      ],
      "type": "VEC2"
    },
    {
      "bufferView": 1,
      "byteOffset": 61500,
      "componentType": 5125,
      "count": 1248,
      "type": "SCALAR"
    },
    {
      "bufferView": 3,
      "byteOffset": 101208,
      "componentType": 5126,
      "count": 382,
      "max": [
        0.4479080140590668,
        2.7336232662200928,
        11.858880043029785
      ],
      "min": [
        -0.17307071387767792,
        1.9593138694763184,
        4.398617744445801
      ],
      "type": "VEC3"
    },
    {
      "bufferView": 3,
      "byteOffset": 105792,
      "componentType": 5126,
      "count": 382,
      "max": [
        1.0,
        1.0,
        1.0
      ],
      "min": [
        -1.0,
        -1.0,
        -1.0
      ],
      "type": "VEC3"
    },
    {
      "bufferView": 2,
      "byteOffset": 67472,
      "componentType": 5126,
      "count": 382,
      "max": [
        0.0,
        1.0
      ],
      "min": [
        0.0,
        1.0
      ],
      "type": "VEC2"
    },
    {
      "bufferView": 2,
      "byteOffset": 70528,
      "componentType": 5126,
      "count": 382,
      "max": [
        0.5587958693504333,
        0.7679624557495117
      ],
      "min": [
        0.5051844716072083,
        0.7143510580062866
      ],
      "type": "VEC2"
    },
    {
      "bufferView": 1,
      "byteOffset": 66492,
      "componentType": 5125,
      "count": 1500,
      "type": "SCALAR"
    },
    {
      "bufferView": 3,
      "byteOffset": 110376,
      "componentType": 5126,
      "count": 520,
      "max": [
        0.5003112554550171,
        2.63706374168396,
        5.093137741088867
      ],
      "min": [
        0.1675005555152893,
        2.1221423149108887,
        4.338407039642334
      ],
      "type": "VEC3"
    },
    {
      "bufferView": 3,
      "byteOffset": 116616,
      "componentType": 5126,
      "count": 520,
      "max": [
        1.0,
        0.999180018901825,
        0.999987006187439
      ],
      "min": [
        -1.0,
        -0.10550202429294586,
        -0.9999916553497314
      ],
      "type": "VEC3"
    },
    {
      "bufferView": 2,
      "byteOffset": 73584,
      "componentType": 5126,
      "count": 520,
      "max": [
        0.0,
        1.0
      ],
      "min": [
        0.0,
        1.0
      ],
      "type": "VEC2"
    },
    {
      "bufferView": 2,
      "byteOffset": 77744,
      "componentType": 5126,
      "count": 520,
      "max": [
        0.5649592280387878,
        0.6905251145362854
      ],
      "min": [
        0.49394819140434265,
        0.6195141077041626
      ],
      "type": "VEC2"
    },
    {
      "bufferView": 1,
      "byteOffset": 72492,
      "componentType": 5125,
      "count": 2208,
      "type": "SCALAR"
    },
    {
      "bufferView": 3,
      "byteOffset": 122856,
      "componentType": 5126,
      "count": 747,
      "max": [
        0.79896479845047,
        1.5407720804214478,
        -7.70547342300415
      ],
      "min": [
        -0.7989644408226013,
        -0.05709364637732506,
        -9.53136920928955
      ],
      "type": "VEC3"
    },
    {
      "bufferView": 3,
      "byteOffset": 131820,
      "componentType": 5126,
      "count": 747,
      "max": [
        0.9995619058609009,
        0.9995619058609009,
        1.0
      ],
      "min": [
        -0.9995619058609009,
        -0.9995619058609009,
        -1.0
      ],
      "type": "VEC3"
    },
    {
      "bufferView": 2,
      "byteOffset": 81904,
      "componentType": 5126,
      "count": 747,
      "max": [
        1.0,
        1.0
      ],
      "min": [
        0.0,
        0.0
      ],
      "type": "VEC2"
    },
    {
      "bufferView": 2,
      "byteOffset": 87880,
      "componentType": 5126,
      "count": 747,
      "max": [
        0.5381265878677368,
        0.8421177268028259
      ],
      "min": [
        0.5154272317886353,
        0.8191822171211243
      ],
      "type": "VEC2"
    },
    {
      "bufferView": 1,
      "byteOffset": 81324,
      "componentType": 5125,
      "count": 4368,
      "type": "SCALAR"
    },
    {
      "bufferView": 3,
      "byteOffset": 140784,
      "componentType": 5126,
      "count": 612,
      "max": [
        3.438563108444214,
        1.1967934370040894,
        -8.289807319641113
      ],
      "min": [
        -3.2640600204467773,
        0.26364782452583313,
        -8.727736473083496
      ],
      "type": "VEC3"
    },
    {
      "bufferView": 3,
      "byteOffset": 148128,
      "componentType": 5126,
      "count": 612,
      "max": [
        0.9996813535690308,
        0.9908255934715271,
        0.9879739284515381
      ],
      "min": [
        -0.9997013807296753,
        -0.9907268285751343,
        -0.999476969242096
      ],
      "type": "VEC3"
    },
    {
      "bufferView": 2,
      "byteOffset": 93856,
      "componentType": 5126,
      "count": 612,
      "max": [
        0.0,
        1.0
      ],
      "min": [
        0.0,
        1.0
      ],
      "type": "VEC2"
    },
    {
      "bufferView": 2,
      "byteOffset": 98752,
      "componentType": 5126,
      "count": 612,
      "max": [
        0.4201679825782776,
        0.8455758094787598
      ],
      "min": [
        0.36167603731155396,
        0.7987761497497559
      ],
      "type": "VEC2"
    },
    {
      "bufferView": 1,
      "byteOffset": 98796,
      "componentType": 5125,
      "count": 3648,
      "type": "SCALAR"
    },
    {
      "bufferView": 5,
      "componentType": 5126,
      "count": 8,
      "max": [
        1.0000001192092896,
        0.9919872879981995,
        1.0000001192092896,
        0.0,
        0.8554279208183289,
        1.0,
        1.0,
        0.0,
        0.9919873476028442,
        0.9999929070472717,
        1.0,
        0.0,
        3.878845691680908,
        11.619129180908203,
        1.4356918143221264e-07,
        1.0
      ],
      "min": [
        -1.0000001192092896,
        -1.1070939365254162e-07,
        -4.32717934018001e-06,
        0.0,
        -1.4542991810806427e-11,
        -1.1862587143696146e-06,
        0.0,
        0.0,
        -0.5179218053817749,
        -1.0,
        -0.0038092739414423704,
        0.0,
        -11.673439025878906,
        -11.448249816894531,
        -4.743453502655029,
        1.0
      ],
      "type": "MAT4"
    },
    {
      "bufferView": 0,
      "componentType": 5123,
      "count": 3389,
      "type": "VEC4"
    },
    {
      "bufferView": 4,
      "byteOffset": 54224,
      "componentType": 5126,
      "count": 3389,
      "max": [
        1.0,
        0.0,
        0.0,
        0.0
      ],
      "min": [
        1.0,
        0.0,
        0.0,
        0.0
      ],
      "type": "VEC4"
    },
    {
      "bufferView": 0,
      "byteOffset": 27112,
      "componentType": 5123,
      "count": 828,
      "type": "VEC4"
    },
    {
      "bufferView": 4,
      "byteOffset": 108448,
      "componentType": 5126,
      "count": 828,
      "max": [
        1.0,
        0.0,
        0.0,
        0.0
      ],
      "min": [
        1.0,
        0.0,
        0.0,
        0.0
      ],
      "type": "VEC4"
    },
    {
      "bufferView": 0,
      "byteOffset": 33736,
      "componentType": 5123,
      "count": 382,
      "type": "VEC4"
    },
    {
      "bufferView": 4,
      "byteOffset": 121696,
      "componentType": 5126,
      "count": 382,
      "max": [
        1.0,
        0.0,
        0.0,
        0.0
      ],
      "min": [
        1.0,
        0.0,
        0.0,
        0.0
      ],
      "type": "VEC4"
    },
    {
      "bufferView": 0,
      "byteOffset": 36792,
      "componentType": 5123,
      "count": 520,
      "type": "VEC4"
    },
    {
      "bufferView": 4,
      "byteOffset": 127808,
      "componentType": 5126,
      "count": 520,
      "max": [
        1.0,
        0.0,
        0.0,
        0.0
      ],
      "min": [
        1.0,
        0.0,
        0.0,
        0.0
      ],
      "type": "VEC4"
    },
    {
      "bufferView": 0,
      "byteOffset": 40952,
      "componentType": 5123,
      "count": 747,
      "type": "VEC4"
    },
    {
      "bufferView": 4,
      "byteOffset": 136128,
      "componentType": 5126,
      "count": 747,
      "max": [
        1.0,
        0.0,
        0.0,
        0.0
      ],
      "min": [
        1.0,
        0.0,
        0.0,
        0.0
      ],
      "type": "VEC4"
    },
    {
      "bufferView": 0,
      "byteOffset": 46928,
      "componentType": 5123,
      "count": 612,
      "type": "VEC4"
    },
    {
      "bufferView": 4,
      "byteOffset": 148080,
      "componentType": 5126,
      "count": 612,
      "max": [
        1.0,
        0.0,
        0.0,
        0.0
      ],
      "min": [
        1.0,
        0.0,
        0.0,
        0.0
      ],
      "type": "VEC4"
    }
  ],
  "asset": {
    "extras": {
      "author": "Ax2050 (https://sketchfab.com/Ax2050)",
      "license": "SKETCHFAB Standard (https://sketchfab.com/licenses)",
      "source": "https://sketchfab.com/3d-models/foam-rc-plane-b4f51a26e9204261a9b46c242e348b72",
      "title": "Foam RC Plane"
    },
    "generator": "Sketchfab-16.16.0",
    "version": "2.0"
  },
  "bufferViews": [
    {
      "buffer": 0,
      "byteLength": 51824,
      "byteStride": 8,
      "name": "shortBufferViews",
      "target": 34962
    },
    {
      "buffer": 0,
      "byteLength": 113388,
      "byteOffset": 51824,
      "name": "floatBufferViews",
      "target": 34963
    },
    {
      "buffer": 0,
      "byteLength": 103648,
      "byteOffset": 165212,
      "byteStride": 8,
      "name": "floatBufferViews",
      "target": 34962
    },
    {
      "buffer": 0,
      "byteLength": 155472,
      "byteOffset": 268860,
      "byteStride": 12,
      "name": "floatBufferViews",
      "target": 34962
    },
    {
      "buffer": 0,
      "byteLength": 157872,
      "byteOffset": 424332,
      "byteStride": 16,
      "name": "floatBufferViews",
      "target": 34962
    },
    {
      "buffer": 0,
      "byteLength": 512,
      "byteOffset": 582204,
      "name": "floatBufferViews"
    }
  ],
  "buffers": [
    {
      "byteLength": 582716,
      "uri": "scene.bin"
    }
  ],
  "images": [
    {
      "uri": "textures/Plane_body_baseColor.png"
    },
    {
      "uri": "textures/Plane_body_metallicRoughness.png"
    },
    {
      "uri": "textures/Plane_body_normal.png"
    }
  ],
  "materials": [
    {
      "doubleSided": true,
      "name": "Plane_body",
      "normalTexture": {
        "index": 2
      },
      "pbrMetallicRoughness": {
        "baseColorTexture": {
          "index": 0
        },
        "metallicFactor": 0.0,
        "metallicRoughnessTexture": {
          "index": 1
        }
      }
    },
    {
      "doubleSided": true,
      "name": "Metal",
      "pbrMetallicRoughness": {
        "roughnessFactor": 0.2605722226962977
      }
    },
    {
      "doubleSided": true,
      "name": "Translucent_plastic",
      "pbrMetallicRoughness": {
        "baseColorFactor": [
          0.8,
          0.8,
          0.8,
          1.0
        ],
        "metallicFactor": 0.0,
        "roughnessFactor": 0.336364
      }
    },
    {
      "doubleSided": true,
      "name": "Translucent_plastic.001",
      "pbrMetallicRoughness": {
        "baseColorFactor": [
          0.452243,
          0.452243,
          0.452243,
          1.0
        ],
        "metallicFactor": 0.0,
        "roughnessFactor": 0.231818
      }
    },
    {
      "doubleSided": true,
      "name": "Prop_Nose",
      "pbrMetallicRoughness": {
        "baseColorFactor": [
          0.238398,
          0.238398,
          0.238398,
          1.0
        ],
        "metallicFactor": 0.0,
        "roughnessFactor": 0.5
      }
    },
    {
      "doubleSided": true,
      "name": "Prop_blades",
      "pbrMetallicRoughness": {
        "baseColorFactor": [
          0.00686162,
          0.00686162,
          0.00686162,
          1.0
        ],
        "metallicFactor": 0.0,
        "roughnessFactor": 0.159091
      }
    }
  ],
  "meshes": [
    {
      "name": "Object_0",
      "primitives": [
        {
          "attributes": {
            "JOINTS_0": 32,
            "NORMAL": 1,
            "POSITION": 0,
            "TANGENT": 2,
            "TEXCOORD_0": 3,
            "TEXCOORD_1": 4,
            "TEXCOORD_2": 3,
            "TEXCOORD_3": 3,
            "TEXCOORD_4": 3,
            "WEIGHTS_0": 33
          },
          "indices": 5,
          "material": 0,
          "mode": 4
        }
      ]
    },
    {
      "name": "Object_1",
      "primitives": [
        {
          "attributes": {
            "JOINTS_0": 34,
            "NORMAL": 7,
            "POSITION": 6,
            "TEXCOORD_0": 8,
            "TEXCOORD_1": 9,
            "WEIGHTS_0": 35
          },
          "indices": 10,
          "material": 1,
          "mode": 4
        }
      ]
    },
    {
      "name": "Object_2",
      "primitives": [
        {
          "attributes": {
            "JOINTS_0": 36,
            "NORMAL": 12,
            "POSITION": 11,
            "TEXCOORD_0": 13,
            "TEXCOORD_1": 14,
            "WEIGHTS_0": 37
          },
          "indices": 15,
          "material": 2,
          "mode": 4
        }
      ]
    },
    {
      "name": "Object_3",
      "primitives": [
        {
          "attributes": {
            "JOINTS_0": 38,
            "NORMAL": 17,
            "POSITION": 16,
            "TEXCOORD_0": 18,
            "TEXCOORD_1": 19,
            "WEIGHTS_0": 39
          },
          "indices": 20,
          "material": 3,
          "mode": 4
        }
      ]
    },
    {
      "name": "Object_4",
      "primitives": [
        {
          "attributes": {
            "JOINTS_0": 40,
            "NORMAL": 22,
            "POSITION": 21,
            "TEXCOORD_0": 23,
            "TEXCOORD_1": 24,
            "WEIGHTS_0": 41
          },
          "indices": 25,
          "material": 4,
          "mode": 4
        }
      ]
    },
    {
      "name": "Object_5",
      "primitives": [
        {
          "attributes": {
            "JOINTS_0": 42,
            "NORMAL": 27,
            "POSITION": 26,
            "TEXCOORD_0": 28,
            "TEXCOORD_1": 29,
            "WEIGHTS_0": 43
          },
          "indices": 30,
          "material": 5,
          "mode": 4
        }
      ]
    }
  ],
  "nodes": [
    {
      "children": [
        1
      ],
      "matrix": [
        0.03257053345441818,
        0.0,
        0.0,
        0.0,
        0.0,
        7.2321112330838e-18,
        -0.03257053345441818,
        0.0,
        0.0,
        0.03257053345441818,
        7.2321112330838e-18,
        0.0,
        0.0,
        0.0,
        0.0,
        1.0
      ],
      "name": "Sketchfab_model"
    },
    {
      "children": [
        2
      ],
      "name": "root"
    },
    {
      "children": [
        3
      ],
      "matrix": [
        1.0,
        0.0,
        0.0,
        0.0,
        0.0,
        2.220446049250313e-16,
        1.0,
        0.0,
        0.0,
        -1.0,
        2.220446049250313e-16,
        0.0,
        0.0,
        0.0,
        0.0,
        1.0
      ],
      "name": "GLTF_SceneRootNode"
    },
    {
      "children": [
        4
      ],
      "matrix": [
        1.0,
        0.0,
        0.0,
        0.0,
        0.0,
        1.0,
        0.0,
        0.0,
        0.0,
        0.0,
        1.0,
        0.0,
        0.0,
        -0.7025378942489624,
        1.724080204963684,
        1.0
      ],
      "name": "Plane Arm_8"
    },
    {
      "children": [
        5,
        7,
        8,
        9,
        10,
        11,
        12,
        6
      ],
      "name": "GLTF_created_0"
    },
    {
      "children": [
        13
      ],
      "name": "GLTF_created_0_rootJoint"
    },
    {
      "name": "Plane_7"
    },
    {
      "mesh": 0,
      "name": "Object_7",
      "skin": 0
    },
    {
      "mesh": 1,
      "name": "Object_8",
      "skin": 0
    },
    {
      "mesh": 2,
      "name": "Object_9",
      "skin": 0
    },
    {
      "mesh": 3,
      "name": "Object_10",
      "skin": 0
    },
    {
      "mesh": 4,
      "name": "Object_11",
      "skin": 0
    },
    {
      "mesh": 5,
      "name": "Object_12",
      "skin": 0
    },
    {
      "children": [
        14,
        15,
        19
      ],
      "name": "Base_6",
      "rotation": [
        -0.7020506858825684,
        -2.83824491686957e-10,
        -2.83824491686957e-10,
        0.7121270298957825
      ],
      "translation": [
        0.0,
        1.2827317714691162,
        1.7173606157302856
      ]
    },
    {
      "name": "Prop_0",
      "rotation": [
        -0.0071250516921281815,
        -5.421148381204359e-19,
        4.013884224995934e-10,
        0.9999746084213257
      ],
      "scale": [
        1.0,
        0.9999998807907104,
        0.9999999403953552
      ],
      "translation": [
        -1.4181364416110398e-16,
        11.343744277954102,
        -6.705522537231445e-08
      ]
    },
    {
      "children": [
        16
      ],
      "name": "Fin_4",
      "rotation": [
        0.6796985864639282,
        0.19496098160743713,
        0.679698646068573,
        0.19496098160743713
      ],
      "scale": [
        1.0,
        0.9999998211860657,
        0.9999998807907104
      ],
      "translation": [
        1.397507531919473e-08,
        -6.059911251068115,
        0.7303965091705322
      ]
    },
    {
      "children": [
        17
      ],
      "name": "Rudder_3",
      "rotation": [
        -0.18881556391716003,
        0.681431233882904,
        0.18881560862064362,
        0.6814314723014832
      ],
      "scale": [
        1.0,
        0.9999998807907104,
        1.0
      ],
      "translation": [
        -2.384185791015625e-07,
        2.2539284229278564,
        6.217248937900877e-15
      ]
    },
    {
      "children": [
        18
      ],
      "name": "Pin_2",
      "rotation": [
        -0.0012571190018206835,
        0.0014272930566221476,
        0.750444769859314,
        0.6609305143356323
      ],
      "scale": [
        0.9999999403953552,
        1.0,
        1.0000001192092896
      ],
      "translation": [
        -1.9674928353197174e-08,
        0.32851362228393555,
        0.003950644284486771
      ]
    },
    {
      "name": "Pole_1",
      "rotation": [
        0.013860694132745266,
        0.012204164639115334,
        0.6608189344406128,
        0.750318169593811
      ],
      "translation": [
        1.4735069271409884e-06,
        0.41241538524627686,
        7.471555818483466e-09
      ]
    },
    {
      "name": "Actuator_5",
      "rotation": [
        0.6981258988380432,
        2.873369042699636e-10,
        2.8017366204835525e-10,
        0.7159749865531921
      ],
      "translation": [
        0.4138701260089874,
        -1.2528990507125854,
        1.7172131538391113
      ]
    }
  ],
  "samplers": [
    {
      "magFilter": 9729,
      "minFilter": 9987,
      "wrapS": 10497,
      "wrapT": 10497
    }
  ],
  "scene": 0,
  "scenes": [
    {
      "name": "Sketchfab_Scene",
      "nodes": [
        0
      ]
    }
  ],
  "skins": [
    {
      "inverseBindMatrices": 31,
      "joints": [
        5,
        13,
        14,
        15,
        16,
        17,
        18,
        19
      ],
      "skeleton": 5
    }
  ],
  "textures": [
    {
      "sampler": 0,
      "source": 0
    },
    {
      "sampler": 0,
      "source": 1
    },
    {
      "sampler": 0,
      "source": 2
    }
  ]
}
